<svg xmlns="http://www.w3.org/2000/svg" xmlns:xlink="http://www.w3.org/1999/xlink" viewBox="0 0 319.58 112.42"><defs><style>.cls-1{fill:url(#Degradado_sin_nombre_58);}.cls-2{fill:url(#Degradado_sin_nombre_45);}.cls-3{fill:url(#Degradado_sin_nombre_45-2);}.cls-4{fill:url(#Degradado_sin_nombre_45-3);}.cls-5{fill:url(#Degradado_sin_nombre_45-4);}.cls-6{fill:url(#Degradado_sin_nombre_61);}.cls-7{fill:url(#Degradado_sin_nombre_61-2);}.cls-8{fill:url(#Degradado_sin_nombre_61-3);}.cls-9{fill:url(#Degradado_sin_nombre_61-4);}.cls-10{fill:url(#Degradado_sin_nombre_58-2);}</style><linearGradient id="Degradado_sin_nombre_58" x1="16.46" y1="16.46" x2="108.9" y2="108.9" gradientUnits="userSpaceOnUse"><stop offset="0.01" stop-color="#ea2626"/><stop offset="0.15" stop-color="#d82222"/><stop offset="0.53" stop-color="#aa1818"/><stop offset="0.83" stop-color="#8e1212"/><stop offset="1" stop-color="#841010"/></linearGradient><linearGradient id="Degradado_sin_nombre_45" x1="131.96" y1="31.7" x2="161.07" y2="31.7" gradientUnits="userSpaceOnUse"><stop offset="0.01" stop-color="#f5f5f5"/><stop offset="1" stop-color="#d9d9d9"/></linearGradient><linearGradient id="Degradado_sin_nombre_45-2" x1="167.4" y1="31.7" x2="198.72" y2="31.7" xlink:href="#Degradado_sin_nombre_45"/><linearGradient id="Degradado_sin_nombre_45-3" x1="207.28" y1="31.7" x2="239.16" y2="31.7" xlink:href="#Degradado_sin_nombre_45"/><linearGradient id="Degradado_sin_nombre_45-4" x1="244.71" y1="31.7" x2="279.71" y2="31.7" xlink:href="#Degradado_sin_nombre_45"/><linearGradient id="Degradado_sin_nombre_61" x1="131.96" y1="80.72" x2="162.17" y2="80.72" gradientUnits="userSpaceOnUse"><stop offset="0.01" stop-color="#ea2626"/><stop offset="0.33" stop-color="#d01717"/><stop offset="0.75" stop-color="#b40606"/><stop offset="1" stop-color="#a00"/></linearGradient><linearGradient id="Degradado_sin_nombre_61-2" x1="166.62" y1="80.72" x2="201.61" y2="80.72" xlink:href="#Degradado_sin_nombre_61"/><linearGradient id="Degradado_sin_nombre_61-3" x1="207.16" y1="80.72" x2="247.82" y2="80.72" xlink:href="#Degradado_sin_nombre_61"/><linearGradient id="Degradado_sin_nombre_61-4" x1="256.93" y1="80.72" x2="283.15" y2="80.72" xlink:href="#Degradado_sin_nombre_61"/><linearGradient id="Degradado_sin_nombre_58-2" x1="290.48" y1="80.72" x2="319.58" y2="80.72" xlink:href="#Degradado_sin_nombre_58"/></defs><g id="Capa_2" data-name="Capa 2"><g id="Capa_1-2" data-name="Capa 1"><path class="cls-1" d="M56.21,0A56.21,56.21,0,1,0,98.59,93.14a43.43,43.43,0,0,0,13.83,11.26V56A56.21,56.21,0,0,0,56.21,0Zm0,84.62A28.41,28.41,0,1,1,84.62,56.21,28.41,28.41,0,0,1,56.21,84.62Z"/><path class="cls-2" d="M132,50.86V44.64L150.4,19.76H132.52V12.54h28v6.22L142.07,43.64h19v7.22Z"/><path class="cls-3" d="M167.4,41.53V21.87q0-9.33,9.33-9.33h12.66q9.33,0,9.33,9.33V41.53q0,9.33-9.33,9.33H176.73Q167.4,50.86,167.4,41.53Zm8,.45a1.46,1.46,0,0,0,1.66,1.66h12A1.47,1.47,0,0,0,190.73,42V21.42a1.47,1.47,0,0,0-1.67-1.66h-12a1.46,1.46,0,0,0-1.66,1.66Z"/><path class="cls-4" d="M207.28,50.86V12.54h8.66L231.16,37.7V12.54h8V50.86h-8.67L215.28,25.7V50.86Z"/><path class="cls-5" d="M244.71,49.36,256.1,12.54h12.22l11.39,36.82-1,1.5H272l-2.33-7.77h-15l-2.33,7.77h-6.67Zm12.17-13.49h10.66l-4.89-16.11h-.89Z"/><path class="cls-6" d="M132,90.55V70.89q0-9.33,9.33-9.33h16.05l3.72,2.89v4.33H141.62A1.46,1.46,0,0,0,140,70.44V91a1.46,1.46,0,0,0,1.66,1.66h12.56V83.77h-7.34V76.55h15.33V99.88H141.29Q132,99.88,132,90.55Z"/><path class="cls-7" d="M166.62,98.38,178,61.56h12.22l11.39,36.82-1,1.5h-6.67l-2.33-7.77h-15l-2.33,7.77h-6.66Zm12.16-13.49h10.66l-4.88-16.11h-.89Z"/><path class="cls-8" d="M207.16,99.88V61.56h9.56l10.77,23,10.78-23h9.55V99.88h-8V75.67l-9,19.21h-6.66l-9-19.21V99.88Z"/><path class="cls-9" d="M256.93,99.88V61.56h26.22v7.22H264.93v7.77h16.55v7.22H264.93v8.89h18.22v7.22Z"/><path class="cls-10" d="M290.48,99.88V61.56h18.66q9.33,0,9.33,9.33v6.33q0,6.94-5.17,8.67l6.28,12.33-.94,1.66h-6.89L305,86.55h-6.5V99.88Zm8-20.55h10.34a1.47,1.47,0,0,0,1.66-1.67V70.44a1.46,1.46,0,0,0-1.66-1.66H298.47Z"/></g></g></svg>